<svg id="Layer_1" data-name="Layer 1" xmlns="http://www.w3.org/2000/svg" xmlns:xlink="http://www.w3.org/1999/xlink" viewBox="0 0 240.42 408.25"><defs><style>.cls-1{fill:url(#linear-gradient);}.cls-2{fill:url(#linear-gradient-2);}</style><linearGradient id="linear-gradient" x1="146.54" y1="106.7" x2="146.54" y2="408.25" gradientUnits="userSpaceOnUse"><stop offset="0" stop-color="#ed1c24"/><stop offset="1" stop-color="#f7941d"/></linearGradient><linearGradient id="linear-gradient-2" x1="101.3" y1="285.6" x2="101.3" y2="0" xlink:href="#linear-gradient"/></defs><path class="cls-1" d="M175.26,106.7c2,12.64,3.82,36.6-6.7,62.89a115.55,115.55,0,0,1-20.62,33.5c-3.77,4.23-9.67,10.19-46.91,34-22.78,14.58-31.28,19.21-39.69,31.45-10.54,15.34-8.77,25-8.25,27.32,2.38,10.67,11.36,16.38,12.37,17,12.17,7.48,26.94,2.66,42.27-2.58,10.58-3.62,27.8-9.51,44.33-25.26,29.69-28.28,32.77-65.13,35.57-64.43s3.5,39.65-17,79.38c-7.58,14.69-29.18,56.53-73.2,76.29-13.39,6-24.67,8.1-24.74,13.4-.12,8.72,30.12,18.57,56.7,18.56,8.29,0,38.31-.45,66.5-21.65,39-29.31,43.59-75.1,44.33-86.6,1.33-20.79-3.33-35.07-19.08-76.8C209.29,191.81,194,152.32,175.26,106.7Z"/><path class="cls-2" d="M141.75,0c-40.11,86.62-67.37,156.84-85,205.67,0,0-28.12,77.67-22.68,79.9,2.69,1.1,9.46-22.11,32-45.36a102.89,102.89,0,0,1,17.49-14.75c14.77-9.77,27-11.91,45.91-30.61a149.35,149.35,0,0,0,21.14-25.2,117.35,117.35,0,0,0,13.4-27.9c8.62-26.6,5.05-49.07,1.54-71.13A227.15,227.15,0,0,0,141.75,0Z"/></svg>